<svg width="15" height="19" viewBox="0 0 15 19" fill="none" xmlns="http://www.w3.org/2000/svg">
<path fill-rule="evenodd" clip-rule="evenodd" d="M4.16728 0C1.66104 0 -0.278072 2.19659 0.0327894 4.68348L1.46528 16.1434C1.62167 17.3945 2.68517 18.3333 3.94598 18.3333H10.17C11.4308 18.3333 12.4943 17.3945 12.6507 16.1434L14.0832 4.68348C14.3941 2.19659 12.455 0 9.94873 0H4.16728ZM1.80924 3.33333C2.15022 2.37125 3.06779 1.66667 4.16728 1.66667H9.94873C11.0482 1.66667 11.9658 2.37125 12.3068 3.33333H1.80924ZM1.75199 5L3.11908 15.9367C3.17121 16.3537 3.52571 16.6667 3.94598 16.6667H10.17C10.5903 16.6667 10.9448 16.3537 10.9969 15.9367L12.364 5H1.75199Z" fill="#513C27"/>
<path d="M9.55964 8.33171C9.23421 8.00627 8.70657 8.00627 8.38113 8.33171L7.05802 9.65482L5.74141 8.3382C5.41597 8.01277 4.88834 8.01277 4.5629 8.3382C4.23746 8.66364 4.23746 9.19128 4.5629 9.51672L5.87951 10.8333L4.55801 12.1548C4.23258 12.4803 4.23258 13.0079 4.55801 13.3333C4.88345 13.6588 5.41109 13.6588 5.73653 13.3333L7.05802 12.0118L8.38113 13.3349C8.70657 13.6604 9.23421 13.6604 9.55964 13.3349C9.88508 13.0095 9.88508 12.4819 9.55964 12.1564L8.23653 10.8333L9.55964 9.51022C9.88508 9.18478 9.88508 8.65714 9.55964 8.33171Z" fill="#513C27"/>
</svg>
