<svg width="21" height="20" viewBox="0 0 21 20" fill="none" xmlns="http://www.w3.org/2000/svg">
<path d="M10.1357 0.422119C10.211 0.191041 10.539 0.191042 10.6143 0.422119L12.7207 6.90552C12.8211 7.21387 13.1083 7.4231 13.4326 7.4231H20.249C20.4922 7.42326 20.5933 7.73423 20.3965 7.8772L14.8818 11.884C14.6196 12.0747 14.5092 12.4125 14.6094 12.7209L16.7158 19.2034C16.791 19.4346 16.5269 19.6272 16.3301 19.4846L10.8154 15.4778C10.553 15.2871 10.197 15.2871 9.93457 15.4778L4.41992 19.4846C4.22312 19.6272 3.95904 19.4346 4.03418 19.2034L6.14062 12.7209C6.24081 12.4125 6.13045 12.0747 5.86816 11.884L0.353516 7.8772C0.156738 7.73423 0.25782 7.42326 0.500977 7.4231H7.31738C7.64168 7.4231 7.92894 7.21387 8.0293 6.90552L10.1357 0.422119Z" stroke="#3B2317" stroke-width="0.497704"/>
</svg>
